<svg xmlns="http://www.w3.org/2000/svg" width="32" height="32" viewBox="0 0 32 32">
  <defs>
    <linearGradient id="grad1" x1="0%" y1="0%" x2="100%" y2="100%">
      <stop offset="0%" style="stop-color:#00A3FF;stop-opacity:1" />
      <stop offset="50%" style="stop-color:#0088FF;stop-opacity:1" />
      <stop offset="100%" style="stop-color:#0066CC;stop-opacity:1" />
    </linearGradient>
    <linearGradient id="grad2" x1="100%" y1="0%" x2="0%" y2="100%">
      <stop offset="0%" style="stop-color:#33B5FF;stop-opacity:1" />
      <stop offset="100%" style="stop-color:#0088FF;stop-opacity:1" />
    </linearGradient>
  </defs>
  <!-- Outer ring -->
  <path d="M16 2 C24.8 2 32 9.2 32 18 C32 26.8 24.8 34 16 34 C7.2 34 0 26.8 0 18 C0 9.2 7.2 2 16 2 Z M16 8 C21.5 8 26 12.5 26 18 C26 23.5 21.5 28 16 28 C10.5 28 6 23.5 6 18 C6 12.5 10.5 8 16 8 Z" fill="url(#grad1)"/>
  <!-- Inner curved element -->
  <path d="M22 12 C25 15 25 21 22 24 C19 27 13 27 10 24 C10 21 12 19 15 18 C18 17 20 15 22 12 Z" fill="url(#grad2)" opacity="0.8"/>
</svg>